<!DOCTYPE svg PUBLIC "-//W3C//DTD SVG 1.1//EN" "http://www.w3.org/Graphics/SVG/1.1/DTD/svg11.dtd">
<!-- Uploaded to: SVG Repo, www.svgrepo.com, Transformed by: SVG Repo Mixer Tools -->
<svg width="64px" height="64px" viewBox="0 -0.5 25 25" fill="none" xmlns="http://www.w3.org/2000/svg">
<g id="SVGRepo_bgCarrier" stroke-width="0"/>
<g id="SVGRepo_tracerCarrier" stroke-linecap="round" stroke-linejoin="round"/>
<g id="SVGRepo_iconCarrier"> <path fill-rule="evenodd" clip-rule="evenodd" d="M5.5 13V11C5.5 7.68629 8.18629 5 11.5 5H13.5C16.8137 5 19.5 7.68629 19.5 11V13C19.5 16.3137 16.8137 19 13.5 19H11.5C8.18629 19 5.5 16.3137 5.5 13Z" stroke="#ffffff" stroke-width="1.5" stroke-linecap="round" stroke-linejoin="round"/> <path d="M10.5 9.63895C10.5 8.54895 11.4 7.94895 12.747 7.99995C13.7191 8.03367 14.492 8.82731 14.5 9.79995C14.547 10.7095 14.116 11.5776 13.363 12.09C12.723 12.5 12.3847 13.2487 12.5 14" stroke="#ffffff" stroke-width="1.5" stroke-linecap="round" stroke-linejoin="round"/> <path d="M12.5 16.5C12.2243 16.5 12 16.2757 12 16C12 15.7243 12.2243 15.5 12.5 15.5C12.7757 15.5 13 15.7243 13 16C13 16.2757 12.7757 16.5 12.5 16.5Z" fill="#ffffff"/> <path d="M12.5 15C13.0523 15 13.5 15.4477 13.5 16C13.5 16.5523 13.0523 17 12.5 17C11.9477 17 11.5 16.5523 11.5 16C11.5 15.4477 11.9477 15 12.5 15Z" fill="#ffffff"/> </g>
</svg>